PathFileType	4	(X/Y/Z)	Patient5_TMGait_0pt45_1_left_04.trc.trc
DataRate	CameraRate	NumFrames	NumMarkers	Units	OrigDataRate	OrigDataStartFrame	OrigNumFrames
58.823529411765	58.823529411765	4	32	mm	58.823529411765	18	       141
Frame#	Time	R.ASIS			L.ASIS			Chest			R.Shoulder			Neck			L.Shoulder			L.Elbow			L.Wrist			R.Elbow			R.Wrist			L.Thigh.Superior			L.Thigh.Lateral			L.Thigh.Inferior			L.Patella			L.Shank.Superior			L.Shank.Lateral			L.Shank.Inferior			L.Heel			L.Midfoot.Lateral			L.Midfoot.Superior			L.Toe			R.Thigh.Superior			R.Thigh.Lateral			R.Thigh.Inferior			R.Patella			R.Shank.Superior			R.Shank.Lateral			R.Shank.Inferior			R.Heel			R.Midfoot.Lateral			R.Midfoot.Superior			R.Toe			
		X1	Y1	Z1	X2	Y2	Z2	X3	Y3	Z3	X4	Y4	Z4	X5	Y5	Z5	X6	Y6	Z6	X7	Y7	Z7	X8	Y8	Z8	X9	Y9	Z9	X10	Y10	Z10	X11	Y11	Z11	X12	Y12	Z12	X13	Y13	Z13	X14	Y14	Z14	X15	Y15	Z15	X16	Y16	Z16	X17	Y17	Z17	X18	Y18	Z18	X19	Y19	Z19	X20	Y20	Z20	X21	Y21	Z21	X22	Y22	Z22	X23	Y23	Z23	X24	Y24	Z24	X25	Y25	Z25	X26	Y26	Z26	X27	Y27	Z27	X28	Y28	Z28	X29	Y29	Z29	X30	Y30	Z30	X31	Y31	Z31	X32	Y32	Z32	

18	5.389000000000	939.988175104694	960.125842097880	611.801339058410	915.090655206029	955.060221190162	376.813766245857	1018.242829502737	1420.486721930019	511.819158660063	940.728592719299	1481.501129031293	690.262592989285	888.016189298338	1545.330007838335	511.553922250338	937.072786077039	1495.670939932048	324.380872474719	824.113344901584	1183.827963805804	203.682300965002	938.257798973089	920.318901358283	185.480304438021	891.440862496996	1164.653148384067	845.596117161097	1102.639833665885	979.787804071205	773.161278600057	987.113735343908	784.123461554394	342.160972427652	950.721080972960	699.020864836348	289.838470904711	1048.048731138870	673.142061174410	344.120435020733	1103.074664822068	548.739623164914	324.307021586071	1063.552688496196	438.267515074432	346.594012244432	982.826060417948	372.128369800826	280.417504364098	1034.649994225427	315.017435106639	356.202303944116	908.227535787937	81.460816159494	371.761812615169	981.711802490528	60.604480911230	292.966603347779	1086.068274158852	122.129358971552	313.254597291353	1188.749158770567	83.066427728056	292.120911679932	920.910955012095	727.491074634162	622.754465319875	824.004291047519	658.698384191457	673.798672487793	892.230946239036	600.054055875837	593.567034859747	881.661802681008	505.353525488158	615.919408472050	834.219419303567	418.213142120185	574.646310996322	764.823006346709	347.978654894774	654.095114321302	816.946641053607	280.292304551626	567.003197681908	694.407343178002	53.539612952079	518.229424514667	767.928887720266	25.163634355274	596.494173880595	875.201063521022	87.253148882057	578.672299973349	978.869355567867	44.320435337218	586.365390934799	
19	5.406000000000	939.683652501722	959.067576394682	611.613989821247	916.501842670608	953.383719242498	376.418682921902	1019.776335861795	1419.299076704278	510.064507900035	941.886369458470	1481.137660531341	687.971054154369	889.818100387153	1544.522180119161	508.826966015799	939.704698523955	1493.973005498709	322.010922136535	826.574695940957	1181.702443119588	202.387408057584	940.601173667554	918.121308546095	185.018083804386	890.491040984773	1164.869898810931	843.841913504645	1100.870983329423	978.553499810078	772.793922205218	984.789387228321	779.735415530654	340.705580052815	946.780861036899	694.348807471906	290.189256632708	1044.521779670363	668.333345132723	343.765034435271	1099.656003377140	547.702334695655	325.415101168142	1067.338553409748	437.316941214691	348.793070662078	990.973477265843	365.460932528711	283.088181993726	1048.454847951306	312.062203024024	358.290548978206	939.666999374783	70.485012545015	374.062585844171	1014.885638996939	52.283446573373	296.282214425490	1115.230538163241	120.550735741694	315.606692441540	1220.191490139514	87.283705869945	296.146157809570	918.608528531592	726.785179265096	622.373969487343	820.842262363623	658.729123054134	673.050071956348	888.841736597827	599.447757952433	593.285441885019	877.499968970181	504.702657763146	615.652414564500	829.395042204777	417.922374382970	574.276275991123	758.969648049892	348.357270710600	653.479835131275	810.963897476776	280.151325985870	566.851185776207	686.762556250400	53.585212006771	518.209765339797	760.204520581784	25.215052629968	596.481789284778	867.491689581470	87.140103141193	578.679796706498	971.112824644271	44.302364071494	586.370244729818	
20	5.423000000000	939.668396299180	958.236452635375	611.452538694534	918.740969984871	951.681711177180	375.841003442093	1021.184417244399	1418.159153136525	508.161147450813	942.657961583582	1480.712070430685	685.368068108707	891.442504380285	1543.645948606566	505.756229727482	942.472001596538	1492.284284930068	319.384612675695	829.391636101566	1179.597242397938	200.608537871098	943.235894851144	915.909003095971	184.331592845994	889.403640979034	1164.872137080718	841.574511786373	1098.765577965764	976.708261409214	772.276896022162	983.165218413307	774.654267053632	339.204863746022	943.119105085269	688.996998602259	290.902452562361	1041.288622141170	662.687268865941	343.799701089669	1095.886348287332	545.614592307651	327.508807507381	1069.855404533829	435.591267581699	351.977220578579	997.498184342742	358.984550854037	286.697127305360	1059.760962298197	309.166741121781	361.368125263087	966.525437999813	61.905951803677	376.609593666009	1043.667147193256	45.694476302211	300.326368389649	1140.176608710693	119.347328294786	319.561718427594	1246.950936692452	90.952171232732	302.400727195608	916.928698195590	726.165209188679	621.878463731181	818.261001332480	658.810946889668	672.106112275694	886.149820066092	598.866672601578	592.914441723276	873.942594899376	504.034450179659	615.301023438673	825.116389634116	417.530951558243	573.794252601884	753.508665264906	348.786123460975	652.718772731371	805.316901223872	279.942579219389	566.590128239640	679.115846968479	53.622100439797	518.170355762442	752.498632861380	25.272760066744	596.460907282089	859.796349361419	87.047895409781	578.713465048425	963.379530915052	44.259208778798	586.352960560983	
21	5.440000000000	939.983599236267	957.648165957478	611.255849884237	921.852282750969	950.025106777214	375.091179548488	1022.416929586181	1417.163299819377	506.132030164845	942.880294987355	1480.287963895118	682.463867901546	892.814018403117	1542.715704004579	502.340193420295	945.272701384030	1490.655376543998	316.510995438329	832.629320240251	1177.533642898751	198.298368637523	946.211326694150	913.693647495050	183.438419719852	888.141454407423	1164.717712909043	838.854799237885	1096.383515794962	974.493470519192	771.509498720323	982.626232751784	769.164188151278	337.909991242305	940.266136149295	683.290116841654	292.042318198000	1038.722473440495	656.512203171953	344.533073694283	1092.186570576555	542.628706173999	330.823056562487	1071.240998137203	433.069022822572	356.188546732557	1002.353370113231	352.804902967388	291.212568241074	1068.255402763932	306.128814623899	365.472539744932	987.605107954893	55.492269646007	379.448010521334	1066.712269609380	40.673655680169	304.941483672474	1159.969473147308	118.017987166564	325.107111791048	1268.105252486786	93.249457674391	310.541826140607	915.930222652502	725.596019802953	621.238201717999	816.338510496191	658.923219151338	670.968943814908	884.210166091560	598.276556168281	592.423555706108	871.029418300676	503.322604176913	614.836353129395	821.410942970980	417.015685009434	573.187899274464	748.485888866698	349.259185074926	651.814411786741	800.027128216078	279.650074318659	566.210100526195	671.465450003197	53.643805337149	518.117748987517	744.815597658386	25.325715862723	596.427003119603	852.112152839537	86.988194484668	578.770836495056	955.670392880338	44.191753599977	586.319281799948	
